<?xml version="1.0" encoding="UTF-8"?>
<svg width="500px" height="500px" viewBox="0 0 500 500" version="1.1" xmlns="http://www.w3.org/2000/svg" xmlns:xlink="http://www.w3.org/1999/xlink">
    <!-- Generator: Sketch 43.2 (39069) - http://www.bohemiancoding.com/sketch -->
    <title>Icon</title>
    <desc>Created with Sketch.</desc>
    <defs></defs>
    <g id="Page-1" stroke="none" stroke-width="1" fill="none" fill-rule="evenodd">
        <g id="Icon">
            <g id="LOGO" transform="translate(0.000000, 1.000000)">
                <polygon id="Square" fill="#E3E8DC" points="73.6426156 72.943662 426.583792 72.943662 426.583792 425.056338 73.6426156 425.056338"></polygon>
                <path d="M52.2977941,98.4395922 L98.574461,98.4395922 L98.574461,399.147913 L52.2977941,399.147913 L52.2977941,98.4395922 Z M447.928614,98.4395922 L447.928614,413.172719 C446.078859,410.697741 441.983035,406.160349 435.641019,399.560408 C429.299003,392.960466 421.503725,385.054405 412.254952,375.841987 C403.006178,366.629569 392.766618,356.454812 381.535965,345.317412 C370.305312,334.180011 358.876642,322.90528 347.249612,311.492882 C335.622583,300.080483 324.259975,288.874501 313.161446,277.874599 C302.062918,266.874697 291.955482,256.768688 282.838834,247.55627 C273.722186,238.343852 266.059031,230.506539 259.849141,224.044097 C253.63925,217.581654 249.609488,213.113011 247.759733,210.638033 C247.495482,210.088038 246.438496,208.644322 244.588741,206.306843 C242.738986,203.969364 241.153506,201.838165 239.832253,199.913182 L241.021375,213.112999 L241.021375,399.147913 L192.663744,399.147913 L192.663744,84.8272814 C194.513499,87.3022594 198.609323,91.7709026 204.951339,98.2333451 C211.293355,104.695788 219.088633,112.464352 228.337406,121.539271 C237.586179,130.614191 247.825739,140.513954 259.056393,151.238859 C270.287046,161.963763 281.715716,172.894752 293.342745,184.032153 C304.969775,195.169554 316.332383,206.169291 327.430911,217.031694 C338.529439,227.894098 348.702937,237.793861 357.951711,246.731282 C367.200484,255.668702 374.9297,263.29977 381.139591,269.624713 C387.349482,275.949657 391.379244,280.349552 393.228999,282.82453 L400.760105,294.374369 L399.570983,280.349564 L399.570983,98.4395922 L447.928614,98.4395922 Z" id="IN" fill-opacity="0.8" fill="#00FFDE"></path>
            </g>
        </g>
    </g>
</svg>