<?xml version="1.0" encoding="UTF-8"?>
<svg width="1300px" height="300px" viewBox="0 0 1300 300" version="1.1" xmlns="http://www.w3.org/2000/svg" xmlns:xlink="http://www.w3.org/1999/xlink">
    <!-- Generator: Sketch 43.2 (39069) - http://www.bohemiancoding.com/sketch -->
    <title>no-bg</title>
    <desc>Created with Sketch.</desc>
    <defs></defs>
    <g id="Page-1" stroke="none" stroke-width="1" fill="none" fill-rule="evenodd">
        <g id="no-bg">
            <g id="LOGO" transform="translate(50.000000, 74.561404)">
                <path d="M22.9064327,27.9766082 L22.9064327,65.0292398 L40.122807,65.0292398 C46.4854119,65.0292398 51.1949165,63.1579135 54.251462,59.4152047 C57.3080075,55.6724959 58.8362573,51.1813127 58.8362573,45.9415205 C58.8362573,39.8284295 56.964931,35.3060575 53.2222222,32.374269 C49.4795135,29.4424805 44.4269324,27.9766082 38.0643275,27.9766082 L22.9064327,27.9766082 Z M22.9064327,84.4912281 L22.9064327,122.853801 L40.871345,122.853801 C44.2397829,122.853801 47.4210377,122.448347 50.4152047,121.637427 C53.4093717,120.826507 56.0292285,119.641333 58.2748538,118.081871 C60.5204791,116.522409 62.2670503,114.526328 63.5146199,112.093567 C64.7621895,109.660807 65.3859649,106.822628 65.3859649,103.578947 C65.3859649,99.9609956 64.6374344,96.9356847 63.1403509,94.502924 C61.6432674,92.0701633 59.647186,90.1052706 57.1520468,88.6081871 C54.6569076,87.1111036 51.8187294,86.0506854 48.6374269,85.4269006 C45.4561244,84.8031158 42.1813034,84.4912281 38.8128655,84.4912281 L22.9064327,84.4912281 Z M0.0760233918,143.625731 L0.0760233918,7.20467836 L37.3157895,7.20467836 C44.0526653,7.20467836 50.1656646,7.85964257 55.6549708,9.16959064 C61.144277,10.4795387 65.8225927,12.5379977 69.6900585,15.3450292 C73.5575242,18.1520608 76.5204575,21.8323359 78.5789474,26.3859649 C80.6374372,30.9395939 81.6666667,36.397629 81.6666667,42.7602339 C81.6666667,46.2534288 81.3235902,49.6530049 80.6374269,52.9590643 C79.9512636,56.2651237 78.8284678,59.3216234 77.2690058,62.128655 C75.7095439,64.9356865 73.6822737,67.3995995 71.1871345,69.5204678 C68.6919953,71.6413361 65.5731181,73.2631523 61.8304094,74.3859649 C64.9493333,75.0097497 68.0993993,76.070168 71.2807018,77.5672515 C74.4620042,79.064335 77.3001825,81.0916051 79.7953216,83.6491228 C82.2904608,86.2066405 84.317731,89.3878952 85.877193,93.1929825 C87.436655,96.9980697 88.2163743,101.458064 88.2163743,106.573099 C88.2163743,113.185218 86.9376346,118.830386 84.380117,123.508772 C81.8225993,128.187158 78.4542119,132.023377 74.2748538,135.017544 C70.0954957,138.011711 65.261236,140.194925 59.7719298,141.567251 C54.2826236,142.939578 48.6062671,143.625731 42.7426901,143.625731 L0.0760233918,143.625731 Z M163,145.122807 C155.639339,145.122807 148.746621,143.906445 142.321637,141.473684 C135.896654,139.040924 130.313864,135.641347 125.573099,131.274854 C120.832335,126.90836 117.089682,121.637458 114.345029,115.461988 C111.600376,109.286519 110.22807,102.456178 110.22807,94.9707602 L110.22807,7.20467836 L133.05848,7.20467836 L133.05848,94.4093567 C133.05848,98.4015794 133.838199,102.144232 135.397661,105.637427 C136.957123,109.130622 139.077959,112.187121 141.760234,114.807018 C144.442509,117.426914 147.592575,119.516561 151.210526,121.076023 C154.828478,122.635485 158.758263,123.415205 163,123.415205 C167.241737,123.415205 171.202711,122.635485 174.883041,121.076023 C178.563371,119.516561 181.775815,117.426914 184.520468,114.807018 C187.265121,112.187121 189.417146,109.130622 190.976608,105.637427 C192.53607,102.144232 193.315789,98.4015794 193.315789,94.4093567 L193.315789,7.20467836 L216.146199,7.20467836 L216.146199,94.9707602 C216.146199,102.456178 214.773893,109.286519 212.02924,115.461988 C209.284587,121.637458 205.510745,126.90836 200.707602,131.274854 C195.904459,135.641347 190.259292,139.040924 183.77193,141.473684 C177.284568,143.906445 170.360661,145.122807 163,145.122807 Z M246.391813,7.20467836 L269.409357,7.20467836 L269.409357,143.625731 L246.391813,143.625731 L246.391813,7.20467836 Z M300.964912,143.625731 L300.964912,7.20467836 L323.795322,7.20467836 L323.795322,121.918129 L390.040936,121.918129 L390.040936,143.625731 L300.964912,143.625731 Z M473.245614,7.20467836 L473.245614,29.0994152 L439.561404,29.0994152 L439.561404,143.625731 L416.54386,143.625731 L416.54386,29.0994152 L383.608187,29.0994152 L383.608187,7.20467836 L473.245614,7.20467836 Z M806.321637,133.520468 C804.824554,134.518524 802.734906,135.703697 800.052632,137.076023 C797.370357,138.44835 794.189102,139.72709 790.508772,140.912281 C786.828442,142.097472 782.680335,143.095513 778.064327,143.906433 C773.44832,144.717353 768.520494,145.122807 763.280702,145.122807 C752.551603,145.122807 742.945462,143.282669 734.461988,139.602339 C725.978515,135.922009 718.805098,130.962994 712.94152,124.725146 C707.077943,118.487298 702.58676,111.189126 699.467836,102.830409 C696.348912,94.4716931 694.789474,85.6764594 694.789474,76.4444444 C694.789474,66.2143738 696.6608,56.7641759 700.403509,48.0935673 C704.146218,39.4229586 709.229987,31.9376533 715.654971,25.6374269 C722.079954,19.3372005 729.565259,14.4405633 738.111111,10.9473684 C746.656963,7.45417357 755.795273,5.70760234 765.526316,5.70760234 C769.269025,5.70760234 773.042866,5.98830129 776.847953,6.5497076 C780.65304,7.11111392 784.239749,7.82845567 787.608187,8.70175439 C790.976625,9.5750531 793.939558,10.5730938 796.497076,11.6959064 C799.054594,12.8187191 800.894731,14.0038924 802.017544,15.251462 C800.894731,16.9980594 800.021446,18.4327429 799.397661,19.5555556 C798.773876,20.6783682 798.118912,21.8323527 797.432749,23.0175439 C796.746585,24.202735 795.998055,25.5438522 795.187135,27.0409357 C794.376214,28.5380192 793.22223,30.5964781 791.725146,33.2163743 C790.228063,32.2183186 788.419114,31.345033 786.298246,30.5964912 C784.177377,29.8479495 781.962975,29.2553628 779.654971,28.8187135 C777.346967,28.3820641 775.007809,28.0389876 772.637427,27.7894737 C770.267045,27.5399598 768.146208,27.4152047 766.274854,27.4152047 C759.288464,27.4152047 752.832388,28.7251331 746.906433,31.3450292 C740.980477,33.9649254 735.865519,37.4268791 731.561404,41.7309942 C727.257288,46.0351092 723.888901,51.0565015 721.45614,56.7953216 C719.02338,62.5341418 717.807018,68.4600084 717.807018,74.5730994 C717.807018,80.5614335 718.961002,86.3937338 721.269006,92.0701754 C723.57701,97.7466171 726.820642,102.768009 731,107.134503 C735.179358,111.500996 740.138373,115.025328 745.877193,117.707602 C751.616013,120.389877 757.978523,121.730994 764.964912,121.730994 C768.957135,121.730994 772.824543,121.32554 776.567251,120.51462 C780.30996,119.7037 783.61597,118.799225 786.48538,117.80117 C789.35479,116.803114 791.693948,115.805073 793.502924,114.807018 C795.3119,113.808962 796.278752,113.122809 796.403509,112.748538 L806.321637,133.520468 Z M810.74269,75.6959064 C810.74269,66.2143775 812.582828,57.2320112 816.263158,48.748538 C819.943488,40.2650648 824.933692,32.8421371 831.233918,26.4795322 C837.534145,20.1169273 844.894695,15.0643462 853.315789,11.3216374 C861.736884,7.57892865 870.750439,5.70760234 880.356725,5.70760234 C889.838254,5.70760234 898.82062,7.57892865 907.304094,11.3216374 C915.787567,15.0643462 923.210495,20.1169273 929.573099,26.4795322 C935.935704,32.8421371 940.957097,40.2650648 944.637427,48.748538 C948.317757,57.2320112 950.157895,66.2143775 950.157895,75.6959064 C950.157895,85.3021923 948.317757,94.3157474 944.637427,102.736842 C940.957097,111.157937 935.935704,118.518487 929.573099,124.818713 C923.210495,131.11894 915.787567,136.077955 907.304094,139.695906 C898.82062,143.313858 889.838254,145.122807 880.356725,145.122807 C870.750439,145.122807 861.736884,143.313858 853.315789,139.695906 C844.894695,136.077955 837.534145,131.11894 831.233918,124.818713 C824.933692,118.518487 819.943488,111.157937 816.263158,102.736842 C812.582828,94.3157474 810.74269,85.3021923 810.74269,75.6959064 Z M833.760234,75.6959064 C833.760234,82.3080253 834.976596,88.5145909 837.409357,94.3157895 C839.842117,100.116988 843.210505,105.169569 847.51462,109.473684 C851.818735,113.777799 856.808938,117.177375 862.48538,119.672515 C868.161822,122.167654 874.30601,123.415205 880.918129,123.415205 C887.280734,123.415205 893.300167,122.167654 898.976608,119.672515 C904.65305,117.177375 909.580876,113.777799 913.760234,109.473684 C917.939592,105.169569 921.245602,100.116988 923.678363,94.3157895 C926.111123,88.5145909 927.327485,82.3080253 927.327485,75.6959064 C927.327485,69.0837876 926.079935,62.877222 923.584795,57.0760234 C921.089656,51.2748248 917.721269,46.191055 913.479532,41.8245614 C909.237796,37.4580678 904.278781,34.0273029 898.602339,31.5321637 C892.925898,29.0370246 886.844087,27.7894737 880.356725,27.7894737 C873.869363,27.7894737 867.787553,29.0370246 862.111111,31.5321637 C856.434669,34.0273029 851.506844,37.4580678 847.327485,41.8245614 C843.148127,46.191055 839.842117,51.2748248 837.409357,57.0760234 C834.976596,62.877222 833.760234,69.0837876 833.760234,75.6959064 Z M972.730994,7.20467836 L1008.09942,7.20467836 C1021.82268,7.20467836 1033.45609,9.29432608 1043,13.4736842 C1052.54391,17.6530423 1060.30991,23.0486999 1066.29825,29.6608187 C1072.28658,36.2729375 1076.62182,43.7894316 1079.30409,52.2105263 C1081.98637,60.6316211 1083.32749,69.0214007 1083.32749,77.380117 C1083.32749,87.6101876 1081.48735,96.8108753 1077.80702,104.982456 C1074.12669,113.154037 1069.16767,120.109133 1062.92982,125.847953 C1056.69198,131.586773 1049.42499,135.98439 1041.12865,139.040936 C1032.83232,142.097481 1024.06827,143.625731 1014.83626,143.625731 L972.730994,143.625731 L972.730994,7.20467836 Z M1011.2807,121.918129 C1018.39185,121.918129 1024.94149,120.920088 1030.92982,118.923977 C1036.91816,116.927865 1042.09549,113.964932 1046.46199,110.035088 C1050.82848,106.105244 1054.22806,101.302173 1056.66082,95.625731 C1059.09358,89.9492894 1060.30994,83.3684585 1060.30994,75.8830409 C1060.30994,67.3995677 1058.84407,60.1949614 1055.91228,54.2690058 C1052.98049,48.3430503 1049.26903,43.5399794 1044.77778,39.8596491 C1040.28653,36.1793188 1035.29632,33.4970844 1029.80702,31.8128655 C1024.31771,30.1286465 1019.078,29.2865497 1014.08772,29.2865497 L995.748538,29.2865497 L995.748538,121.918129 L1011.2807,121.918129 Z M1106.27485,143.625731 L1106.27485,7.20467836 L1196.84795,7.20467836 L1196.84795,27.9766082 L1129.10526,27.9766082 L1129.10526,64.6549708 L1189.36257,64.6549708 L1189.36257,85.9883041 L1129.10526,85.9883041 L1129.10526,122.292398 L1199.46784,122.292398 L1199.46784,143.625731 L1106.27485,143.625731 Z" id="BUILTINCODE" fill="#E3E8DC"></path>
                <g id="IN" transform="translate(495.906433, 0.000000)" fill-opacity="0.6" fill="#00FFDE">
                    <polygon id="Path" points="1.03508773 7.20467836 24.0526316 7.20467836 24.0526316 143.625731 1.03508773 143.625731"></polygon>
                    <path d="M176.122807,7.20467836 L176.122807,149.988304 C175.249508,148.865491 173.315804,146.807033 170.321637,143.812865 C167.32747,140.818698 163.647195,137.23199 159.280702,133.052632 C154.914208,128.873273 150.079949,124.257335 144.777778,119.204678 C139.475607,114.152022 134.079949,109.037063 128.590643,103.859649 C123.101337,98.6822353 117.736868,93.5984655 112.497076,88.6081871 C107.257284,83.6179088 102.485402,79.0331593 98.1812866,74.8538012 C93.8771715,70.674443 90.2592739,67.118923 87.3274854,64.1871345 C84.3956969,61.255346 82.4931818,59.2280758 81.6198831,58.1052632 C81.4951261,57.8557492 80.9961057,57.200785 80.122807,56.1403509 C79.2495083,55.0799167 78.5009778,54.1130648 77.877193,53.2397661 L78.4385965,59.2280702 L78.4385965,143.625731 L55.6081871,143.625731 L55.6081871,1.02923977 C56.4814859,2.1520524 58.4151897,4.17932257 61.4093567,7.11111111 C64.4035238,10.0428996 68.0837988,13.5672309 72.4502924,17.6842105 C76.816786,21.8011902 81.6510456,26.2923733 86.9532164,31.1578947 C92.2553871,36.0234161 97.6510447,40.9824309 103.140351,46.0350877 C108.629657,51.0877446 113.994126,56.0779481 119.233918,61.005848 C124.47371,65.9337478 129.276781,70.424931 133.643275,74.4795322 C138.009768,78.5341333 141.658855,81.996087 144.590643,84.8654971 C147.522432,87.7349071 149.424947,89.7309885 150.298246,90.8538012 L153.853801,96.0935673 L153.292398,89.7309942 L153.292398,7.20467836 L176.122807,7.20467836 Z" id="Path"></path>
                </g>
            </g>
        </g>
    </g>
</svg>