<?xml version="1.0" encoding="UTF-8" standalone="no"?>
<svg width="221px" height="34px" viewBox="0 0 221 34" version="1.1" xmlns="http://www.w3.org/2000/svg" xmlns:xlink="http://www.w3.org/1999/xlink">
    <!-- Generator: Sketch 39.1 (31720) - http://www.bohemiancoding.com/sketch -->
    <title>Page-1</title>
    <desc>Created with Sketch.</desc>
    <defs></defs>
    <g id="Page-1" stroke="none" stroke-width="1" fill="none" fill-rule="evenodd">
        <g id="Artboard" transform="translate(-3.000000, -15.000000)">
            <g id="built-in-code-dark-250" transform="translate(2.000000, 15.000000)">
                <g id="Page-1" transform="translate(0.125529, 0.845144)">
                    <g id="Logos">
                        <g id="keptincloud">
                            <path d="M0.985542576,31.0003573 L0.985542576,1.144363 C0.985542576,0.892599889 1.08920819,0.663054609 1.29654252,0.455720278 C1.50387685,0.248385948 1.73342213,0.144720337 1.98518524,0.144720337 L5.67275597,0.144720337 C5.93932868,0.144720337 6.1725763,0.244683604 6.37250584,0.444613138 C6.57243537,0.644542671 6.67239864,0.877790294 6.67239864,1.144363 L6.67239864,11.4295753 C7.22035365,11.1926218 7.97192933,10.9815883 8.92714821,10.7964683 C9.88236709,10.6113484 10.841274,10.5187898 11.8038977,10.5187898 C14.8546742,10.5187898 17.3167325,11.5628506 19.1901463,13.6510035 C21.06356,15.7391564 22.0002529,18.3530107 22.0002529,21.4926449 C22.0002529,23.4771306 21.5818881,25.3097905 20.745146,26.9906795 C19.9084038,28.6715686 18.7310587,30.0118168 17.2130752,31.0114645 C15.6950917,32.0111121 14.0031209,32.5109285 12.1371119,32.5109285 C11.2781554,32.5109285 10.4488305,32.4035605 9.64911236,32.1888214 C8.84939423,31.9740823 8.18667479,31.7112159 7.66093416,31.4002144 C7.13519354,31.0892129 6.67240064,30.7782161 6.27254157,30.4672146 C5.87268251,30.1562131 5.58389973,29.8970491 5.40618459,29.6897147 L5.11739893,29.3565005 L4.62868474,31.0003573 C4.37692163,31.6667891 4.02890136,32 3.58461351,32 L1.98518524,32 C1.71861253,32 1.48536491,31.9000367 1.28543538,31.7001072 C1.08550584,31.5001777 0.985542576,31.26693 0.985542576,31.0003573 L0.985542576,31.0003573 Z M6.67239864,24.4027157 C6.95378094,25.1431955 7.49062071,25.8133196 8.28293405,26.4131082 C9.07524738,27.0128968 10.0859871,27.3127866 11.3151835,27.3127866 C12.870191,27.3127866 14.0845595,26.7389234 14.9583256,25.5911798 C15.8320917,24.4434362 16.2689682,23.0772715 16.2689682,21.4926449 C16.2689682,19.9080182 15.8098777,18.5492582 14.8916828,17.4163242 C13.9734879,16.2833902 12.6924771,15.7169317 11.0486121,15.7169317 C10.2637036,15.7169317 9.50842554,15.8168949 8.78275538,16.0168245 C8.05708522,16.216754 7.5239478,16.4129782 7.18332711,16.6055029 L6.67239864,16.8942886 L6.67239864,24.4027157 Z M26.3764663,23.1365017 L26.3764663,11.9849324 C26.3764663,11.6887405 26.4727272,11.4480882 26.665252,11.2629682 C26.8577767,11.0778483 27.0947267,10.9852897 27.376109,10.9852897 L31.0636797,10.9852897 C31.345062,10.9852897 31.582012,11.0778483 31.7745367,11.2629682 C31.9670615,11.4480882 32.0633224,11.6887405 32.0633224,11.9849324 L32.0633224,23.1365017 C32.0633224,24.5582228 32.3372958,25.6096883 32.8852508,26.2909297 C33.4332058,26.972171 34.3439823,27.3127866 35.6176074,27.3127866 C36.1655624,27.3127866 36.6653788,27.198014 37.1170714,26.9684652 C37.5687641,26.7389165 37.9427007,26.4279197 38.2388926,26.0354654 C38.5350845,25.6430112 38.7720345,25.2283487 38.9497496,24.7914657 C39.1274648,24.3545826 39.2607491,23.8917897 39.3496067,23.4030731 L39.3496067,11.9849324 C39.3496067,11.5850733 39.4273559,11.3185046 39.5828567,11.1852182 C39.7383574,11.0519319 40.0382472,10.9852897 40.4825351,10.9852897 L44.0146058,10.9852897 C44.2959881,10.9852897 44.5366404,11.0778483 44.73657,11.2629682 C44.9364995,11.4480882 45.0364628,11.6887405 45.0364628,11.9849324 L45.0364628,31.0003573 C45.0364628,31.2817396 44.9364995,31.5186896 44.73657,31.7112143 C44.5366404,31.9037391 44.2959881,32 44.0146058,32 L42.3929633,32 C41.9042466,32 41.5710358,31.740836 41.3933206,31.2225001 L40.793535,29.4453576 C38.8238589,31.4890817 36.6542857,32.5109285 34.2847505,32.5109285 C33.0111254,32.5109285 31.9041247,32.3517277 30.9637155,32.0333214 C30.0233062,31.7149151 29.2643258,31.2891457 28.6867516,30.7560002 C28.1091774,30.2228548 27.6426821,29.545326 27.2872519,28.7233935 C26.9318216,27.901461 26.6911693,27.049922 26.5652877,26.1687511 C26.4394062,25.2875802 26.3764663,24.2768405 26.3764663,23.1365017 L26.3764663,23.1365017 Z M50.0124618,3.74343394 C50.0124618,2.73638148 50.3567798,1.88484253 51.0454259,1.18879157 C51.7340721,0.492740601 52.5893134,0.144720337 53.6111754,0.144720337 C54.6330375,0.144720337 55.4956835,0.492740601 56.1991392,1.18879157 C56.902595,1.88484253 57.2543176,2.73638148 57.2543176,3.74343394 C57.2543176,4.7504864 56.902595,5.60943003 56.1991392,6.32029059 C55.4956835,7.03115115 54.6330375,7.3865761 53.6111754,7.3865761 C52.604123,7.3865761 51.752584,7.03115115 51.0565331,6.32029059 C50.3604821,5.60943003 50.0124618,4.7504864 50.0124618,3.74343394 L50.0124618,3.74343394 Z M50.8343902,31.0003573 L50.8343902,11.9849324 C50.8343902,11.6887405 50.9343535,11.4480882 51.134283,11.2629682 C51.3342126,11.0778483 51.5674602,10.9852897 51.8340329,10.9852897 L55.5216036,10.9852897 C55.7881764,10.9852897 56.021424,11.0778483 56.2213535,11.2629682 C56.421283,11.4480882 56.5212463,11.6887405 56.5212463,11.9849324 L56.5212463,31.0003573 C56.5212463,31.26693 56.421283,31.5001777 56.2213535,31.7001072 C56.021424,31.9000367 55.7881764,32 55.5216036,32 L51.8340329,32 C51.5674602,32 51.3342126,31.9000367 51.134283,31.7001072 C50.9343535,31.5001777 50.8343902,31.26693 50.8343902,31.0003573 L50.8343902,31.0003573 Z M62.3858166,31.0003573 L62.3858166,1.144363 C62.3858166,0.892599889 62.4894822,0.663054609 62.6968166,0.455720278 C62.9041509,0.248385948 63.1336962,0.144720337 63.3854593,0.144720337 L67.07303,0.144720337 C67.3247931,0.144720337 67.5543384,0.248385948 67.7616727,0.455720278 C67.9690071,0.663054609 68.0726727,0.892599889 68.0726727,1.144363 L68.0726727,31.0003573 C68.0726727,31.26693 67.9727094,31.5001777 67.7727799,31.7001072 C67.5728504,31.9000367 67.3396027,32 67.07303,32 L63.3854593,32 C63.1188866,32 62.885639,31.9000367 62.6857094,31.7001072 C62.4857799,31.5001777 62.3858166,31.26693 62.3858166,31.0003573 L62.3858166,31.0003573 Z" id="buil" fill="#FFFFFF"></path>
                            <path d="M69.5378147,15.0727175 L69.5378147,11.9849324 C69.5378147,11.6887405 69.6266709,11.4480882 69.8043861,11.2629682 C69.9821012,11.0778483 70.2116465,10.9852897 70.4930288,10.9852897 L72.558957,10.9852897 L72.558957,5.16514796 C72.558957,4.89857524 72.6589203,4.66532762 72.8588498,4.46539809 C73.0587793,4.26546855 73.2920269,4.16550529 73.5585997,4.16550529 L77.2905989,4.16550529 C77.5719813,4.16550529 77.8015265,4.26176621 77.9792417,4.45429095 C78.1569568,4.64681568 78.2458131,4.88376565 78.2458131,5.16514796 L78.2458131,10.9852897 L83.1551693,10.9852897 C83.4365516,10.9852897 83.6735015,11.0778483 83.8660263,11.2629682 C84.058551,11.4480882 84.1548119,11.6887405 84.1548119,11.9849324 L84.1548119,15.0727175 C84.1548119,15.3392902 84.0548487,15.5725378 83.8549191,15.7724674 C83.6549896,15.9723969 83.421742,16.0723602 83.1551693,16.0723602 L78.2458131,16.0723602 L78.2458131,25.5356441 C78.2458131,26.1872663 78.3902044,26.6389521 78.6789915,26.8907153 C78.9677786,27.1424784 79.3935481,27.268358 79.9563127,27.268358 C80.6523637,27.268358 81.7186385,27.0388128 83.1551693,26.5797153 C83.4513612,26.4760482 83.7105252,26.4760482 83.9326691,26.5797153 C84.154813,26.6833825 84.2880974,26.8684996 84.3325262,27.1350724 L84.9323118,29.9118575 C84.961931,30.0155247 84.9767403,30.1191903 84.9767403,30.2228575 C84.9767403,30.607907 84.7620044,30.9114991 84.3325262,31.133643 C83.8586191,31.4002157 82.9996755,31.6964032 81.7556695,32.0222143 C80.5116635,32.3480254 79.4009606,32.5109285 78.4235273,32.5109285 C77.2979981,32.5109285 76.3390912,32.333216 75.5467779,31.9777857 C74.7544645,31.6223554 74.1472802,31.1151344 73.7252068,30.4561074 C73.3031333,29.7970805 73.0032435,29.0862306 72.8255284,28.3235364 C72.6478132,27.5608423 72.558957,26.6907916 72.558957,25.7133583 L72.558957,16.0723602 L70.4930288,16.0723602 C70.2264561,16.0723602 70.0006132,15.9723969 69.8154932,15.7724674 C69.6303733,15.5725378 69.5378147,15.3392902 69.5378147,15.0727175 L69.5378147,15.0727175 Z" id="t" fill="#FFFFFF"></path>
                            <path d="M93.5423115,3.74343394 C93.5423115,2.73638148 93.8866294,1.88484253 94.5752755,1.18879157 C95.2639217,0.492740601 96.119163,0.144720337 97.1410251,0.144720337 C98.1628871,0.144720337 99.0255331,0.492740601 99.7289889,1.18879157 C100.432445,1.88484253 100.784167,2.73638148 100.784167,3.74343394 C100.784167,4.7504864 100.432445,5.60943003 99.7289889,6.32029059 C99.0255331,7.03115115 98.1628871,7.3865761 97.1410251,7.3865761 C96.1339726,7.3865761 95.2824337,7.03115115 94.5863827,6.32029059 C93.8903317,5.60943003 93.5423115,4.7504864 93.5423115,3.74343394 L93.5423115,3.74343394 Z M94.3642399,31.0003573 L94.3642399,11.9849324 C94.3642399,11.6887405 94.4642031,11.4480882 94.6641327,11.2629682 C94.8640622,11.0778483 95.0973098,10.9852897 95.3638825,10.9852897 L99.0514533,10.9852897 C99.318026,10.9852897 99.5512736,11.0778483 99.7512031,11.2629682 C99.9511327,11.4480882 100.051096,11.6887405 100.051096,11.9849324 L100.051096,31.0003573 C100.051096,31.26693 99.9511327,31.5001777 99.7512031,31.7001072 C99.5512736,31.9000367 99.318026,32 99.0514533,32 L95.3638825,32 C95.0973098,32 94.8640622,31.9000367 94.6641327,31.7001072 C94.4642031,31.5001777 94.3642399,31.26693 94.3642399,31.0003573 L94.3642399,31.0003573 Z" id="i" fill="#58DB78"></path>
                            <path d="M104.371238,31.0003573 L104.371238,11.9849324 C104.371238,11.6887405 104.471201,11.4480882 104.671131,11.2629682 C104.87106,11.0778483 105.104308,10.9852897 105.370881,10.9852897 L107.103594,10.9852897 C107.547882,10.9852897 107.836665,11.1926209 107.969951,11.6072896 L108.747451,13.5843606 C108.984405,13.3177879 109.191736,13.0956473 109.369451,12.9179322 C109.547166,12.7402171 109.858163,12.4847554 110.302451,12.1515395 C110.746739,11.8183236 111.187318,11.5480525 111.624201,11.3407182 C112.061084,11.1333839 112.627542,10.9445644 113.323593,10.774254 C114.019644,10.6039437 114.752708,10.5187898 115.522807,10.5187898 C121.135644,10.5187898 123.94202,13.7176143 123.94202,20.1153594 L123.94202,31.0003573 C123.94202,31.26693 123.842057,31.5001777 123.642127,31.7001072 C123.442198,31.9000367 123.20895,32 122.942377,32 L119.254806,32 C118.973424,32 118.736474,31.9037391 118.543949,31.7112143 C118.351425,31.5186896 118.255164,31.2817396 118.255164,31.0003573 L118.255164,20.1153594 C118.255164,17.1830596 117.040795,15.7169317 114.612022,15.7169317 C113.368016,15.7169317 112.375788,16.0390355 111.635308,16.6832529 C110.894828,17.3274703 110.369095,18.0938553 110.058094,18.982431 L110.058094,31.0003573 C110.058094,31.3854068 109.965535,31.6482732 109.780415,31.7889643 C109.595295,31.9296555 109.250978,32 108.747451,32 L105.370881,32 C105.104308,32 104.87106,31.9000367 104.671131,31.7001072 C104.471201,31.5001777 104.371238,31.26693 104.371238,31.0003573 L104.371238,31.0003573 Z" id="n" fill="#58DB78"></path>
                            <path d="M128.25159,21.4926449 C128.25159,18.3974395 129.325269,15.7946922 131.472661,13.6843249 C133.620052,11.5739576 136.25612,10.5187898 139.380945,10.5187898 C142.387293,10.5187898 145.001147,11.7035396 147.222586,14.0730748 C147.429921,14.3100284 147.503967,14.5617877 147.444729,14.8283604 C147.385491,15.0949331 147.237397,15.3466925 147.000443,15.583646 L145.067801,17.6717884 C144.890086,17.8643132 144.704969,17.9605741 144.512444,17.9605741 C144.27549,17.9605741 144.008922,17.8198851 143.71273,17.5385027 C142.439105,16.324116 141.047024,15.7169317 139.536445,15.7169317 C137.922199,15.7169317 136.593058,16.2722831 135.548981,17.3830028 C134.504905,18.4937224 133.982874,19.8635894 133.982874,21.4926449 C133.982874,23.1513195 134.4975,24.5359959 135.526767,25.6467155 C136.556034,26.7574351 137.87777,27.3127866 139.492016,27.3127866 C140.202877,27.3127866 140.865596,27.1795022 141.480194,26.9129295 C142.094793,26.6463568 142.557586,26.3723834 142.868587,26.0910011 C143.179589,25.8096188 143.535013,25.4467892 143.934873,25.0025013 C144.097778,24.8247862 144.316216,24.7174182 144.590194,24.6803942 C144.864171,24.6433703 145.090014,24.6989054 145.267729,24.8470014 L147.311443,26.5797153 C147.666874,26.8907168 147.844586,27.2091183 147.844586,27.5349294 C147.844586,27.7274542 147.785349,27.9125713 147.666872,28.0902865 C145.786053,31.0373959 143.009296,32.5109285 139.336516,32.5109285 C137.307602,32.5109285 135.449025,32.0370285 133.760732,31.0892145 C132.072438,30.1414004 130.73219,28.8233662 129.739947,27.1350724 C128.747704,25.4467785 128.25159,23.5659882 128.25159,21.4926449 L128.25159,21.4926449 Z" id="c" fill="#FFFFFF"></path>
                            <path d="M150.621372,21.4482163 C150.621372,19.5081593 151.098974,17.6977135 152.054193,16.0168245 C153.009412,14.3359354 154.316339,12.9993895 155.975014,12.0071467 C157.633688,11.0149038 159.425622,10.5187898 161.35087,10.5187898 C163.290927,10.5187898 165.090266,11.0149038 166.74894,12.0071467 C168.407615,12.9993895 169.718244,14.3359354 170.680868,16.0168245 C171.643492,17.6977135 172.124796,19.5081593 172.124796,21.4482163 C172.124796,23.4178924 171.643492,25.2505523 170.680868,26.946251 C169.718244,28.6419496 168.407615,29.9933049 166.74894,31.0003573 C165.090266,32.0074098 163.290927,32.5109285 161.35087,32.5109285 C159.899529,32.5109285 158.511151,32.214741 157.185692,31.6223572 C155.860233,31.0299734 154.719912,30.2339696 153.764693,29.234322 C152.809474,28.2346743 152.046791,27.0573291 151.476622,25.7022512 C150.906452,24.3471732 150.621372,22.9291758 150.621372,21.4482163 L150.621372,21.4482163 Z M155.886157,21.4482163 C155.886157,23.0624622 156.419294,24.4434362 157.485585,25.5911798 C158.551876,26.7389234 159.840291,27.3127866 161.35087,27.3127866 C162.876258,27.3127866 164.175781,26.7389234 165.249476,25.5911798 C166.323172,24.4434362 166.860012,23.0624622 166.860012,21.4482163 C166.860012,19.8635896 166.323172,18.5122343 165.249476,17.3941099 C164.175781,16.2759855 162.876258,15.7169317 161.35087,15.7169317 C159.825482,15.7169317 158.533364,16.2759855 157.474478,17.3941099 C156.415592,18.5122343 155.886157,19.8635896 155.886157,21.4482163 L155.886157,21.4482163 Z M175.368081,21.4926449 C175.368081,19.4489207 175.793851,17.5977491 176.645403,15.9390745 C177.496954,14.2803998 178.72243,12.9623656 180.321866,11.9849324 C181.921302,11.0074991 183.742855,10.5187898 185.786579,10.5187898 C187.59335,10.5187898 189.274214,10.8075726 190.829221,11.3851468 L190.829221,1.144363 C190.829221,0.892599889 190.932887,0.663054609 191.140221,0.455720278 C191.347556,0.248385948 191.577101,0.144720337 191.828864,0.144720337 L195.516435,0.144720337 C195.783007,0.144720337 196.016255,0.244683604 196.216185,0.444613138 C196.416114,0.644542671 196.516077,0.877790294 196.516077,1.144363 L196.516077,31.0003573 C196.516077,31.2817396 196.419816,31.5186896 196.227292,31.7112143 C196.034767,31.9037391 195.797817,32 195.516435,32 L193.828149,32 C193.354242,32 193.021031,31.6667891 192.828507,31.0003573 L192.295364,29.3565005 C192.236126,29.4453581 192.139865,29.5601307 192.006578,29.7008219 C191.873292,29.841513 191.588211,30.0932724 191.151328,30.4561074 C190.714445,30.8189425 190.251652,31.137344 189.762936,31.4113215 C189.274219,31.685299 188.633714,31.9370584 187.8414,32.1666071 C187.049087,32.3961558 186.238274,32.5109285 185.408937,32.5109285 C182.535875,32.5109285 180.144161,31.47057 178.233724,29.3898219 C176.323286,27.3090738 175.368081,24.6767078 175.368081,21.4926449 L175.368081,21.4926449 Z M181.232652,21.4926449 C181.232652,23.0772715 181.669528,24.4434362 182.543294,25.5911798 C183.41706,26.7389234 184.631429,27.3127866 186.186437,27.3127866 C187.415633,27.3127866 188.426373,27.0128968 189.218686,26.4131082 C190.010999,25.8133196 190.547839,25.1431955 190.829221,24.4027157 L190.829221,16.8942886 C190.695935,16.805431 190.510818,16.6943607 190.273864,16.5610744 C190.036911,16.427788 189.537094,16.2537779 188.7744,16.0390387 C188.011706,15.8242996 187.237916,15.7169317 186.453008,15.7169317 C184.809143,15.7169317 183.528132,16.2833902 182.609937,17.4163242 C181.691742,18.5492582 181.232652,19.9080182 181.232652,21.4926449 L181.232652,21.4926449 Z M201.070005,21.4926449 C201.070005,19.5229687 201.514286,17.7051182 202.402862,16.0390387 C203.291438,14.3729593 204.550234,13.0364134 206.17929,12.0293609 C207.808345,11.0223085 209.637303,10.5187898 211.666217,10.5187898 C214.420802,10.5187898 216.716255,11.4369709 218.552645,13.2733607 C220.389034,15.1097505 221.307216,17.4422267 221.307216,20.2708594 C221.307216,20.759576 221.277597,21.2112619 221.218358,21.6259305 C221.203549,21.8925033 221.092479,22.1183462 220.885144,22.3034661 C220.67781,22.4885861 220.455669,22.5811446 220.218716,22.5811446 L206.756861,22.5811446 C206.78648,23.9140082 207.293701,25.0580323 208.278539,26.0132511 C209.263378,26.96847 210.496258,27.4460723 211.977217,27.4460723 C213.72475,27.4460723 215.227901,26.9351489 216.486716,25.9132869 C216.782908,25.6763333 217.042072,25.5578584 217.264216,25.5578584 C217.48636,25.5578584 217.678882,25.6763333 217.841788,25.9132869 L219.61893,28.2680007 C219.826264,28.4901446 219.92993,28.7122852 219.92993,28.9344292 C219.92993,29.1861923 219.796646,29.4231422 219.530073,29.6452862 C217.293824,31.5557239 214.687375,32.5109285 211.710646,32.5109285 C209.666922,32.5109285 207.826857,32.0111121 206.190397,31.0114645 C204.553937,30.0118168 203.291438,28.6752709 202.402862,27.0017867 C201.514286,25.3283024 201.070005,23.4919402 201.070005,21.4926449 L201.070005,21.4926449 Z M207.067861,18.8491454 L215.575931,18.8491454 C215.531502,17.8124737 215.131649,16.9461254 214.37636,16.2500744 C213.62107,15.5540235 212.673271,15.2060032 211.532932,15.2060032 C210.288926,15.2060032 209.267079,15.5466188 208.467361,16.2278601 C207.667643,16.9091015 207.201147,17.7828545 207.067861,18.8491454 L207.067861,18.8491454 Z" id="ode" fill="#FFFFFF"></path>
                        </g>
                    </g>
                </g>
            </g>
        </g>
    </g>
</svg>