<?xml version="1.0" encoding="UTF-8" standalone="no"?>
<svg width="225px" height="235px" viewBox="0 0 225 235" version="1.1" xmlns="http://www.w3.org/2000/svg" xmlns:xlink="http://www.w3.org/1999/xlink">
    <!-- Generator: Sketch 39.1 (31720) - http://www.bohemiancoding.com/sketch -->
    <title>in-code-icon</title>
    <desc>Created with Sketch.</desc>
    <defs></defs>
    <g id="Page-1" stroke="none" stroke-width="1" fill="none" fill-rule="evenodd">
        <g id="in-code-icon" transform="translate(-71.000000, -58.000000)">
            <g id="Page-1">
                <g id="icon">
                    <g id="Logos" transform="translate(70.935484, 58.215054)">
                        <g id="Group" transform="translate(0.440860, 0.161290)">
                            <path d="M7,153.623656 L7,129.123656 L7,123.623656 C7,113.998611 13.1236558,98.1236563 13.1236558,98.1236563 C13.1236558,96.0681321 11.0142702,96.2220619 13.1236558,94.9373593 C15.2330413,93.6526567 14.7343609,88 17.546875,88 L56.453125,88 C59.2656391,88 61.726552,88.6423417 63.8359375,89.9270443 C65.945323,91.2117469 67,92.8818352 67,94.9373593 L67,226.90135 C67,228.751322 65.945323,230.370023 63.8359375,231.757502 C61.726552,233.144981 59.2656391,233.83871 56.453125,233.83871 L17.546875,233.83871 C14.7343609,233.83871 12.273448,233.144981 10.1640625,231.757502 C8.05467695,230.370023 7,228.751322 7,226.90135 L7,153.623656 L7,153.623656 Z" id="i" fill="#58DB78"></path>
                            <g id="Group-2" transform="translate(7.000000, 0.000000)" fill="#000000">
                                <path d="M1.56319402e-13,116.387905 C1.56319402e-13,83.5656028 11.3974565,55.9654447 34.1927114,33.5866024 C56.9879664,11.2077601 84.9706872,0.0185068349 118.141713,0.0185068349 C150.05507,0.0185068349 177.801982,12.581879 201.38328,37.7090001 C203.584201,40.2217122 204.370232,42.8914288 203.741398,45.7182299 C203.112563,48.545031 201.5405,51.2147476 199.025162,53.7274597 L178.509535,75.8706245 C176.623031,77.9122031 174.657952,78.9329771 172.61424,78.9329771 C170.098901,78.9329771 167.269188,77.4410766 164.125015,74.457231 C150.605071,61.5795814 135.827679,55.1408532 119.792396,55.1408532 C102.656653,55.1408532 88.5473874,61.0299339 77.4641773,72.8082719 C66.3809671,84.58661 60.8394452,99.113009 60.8394452,116.387905 C60.8394452,133.97689 66.302364,148.660331 77.2283655,160.438669 C88.154367,172.217007 102.185029,178.106087 119.320772,178.106087 C126.866788,178.106087 133.90177,176.692708 140.425929,173.865907 C146.950088,171.039106 151.862785,168.133826 155.164166,165.14998 C158.465548,162.166135 162.238499,158.318602 166.483133,153.607267 C168.212428,151.722733 170.531221,150.584177 173.439581,150.191566 C176.347941,149.798955 178.745337,150.387863 180.631841,151.958308 L202.326527,170.332423 C206.099535,173.630358 207.98601,177.006764 207.98601,180.461743 C207.98601,182.503322 207.357185,184.466349 206.099516,186.350883 C186.134017,217.60274 156.657836,233.228434 117.67009,233.228434 C96.132504,233.228434 76.4031138,228.203085 58.4813271,218.152237 C40.5595405,208.101388 26.3323707,194.124637 15.7993908,176.221563 C5.26641094,158.318489 1.56319402e-13,138.374136 1.56319402e-13,116.387905 L1.56319402e-13,116.387905 L1.56319402e-13,116.387905 Z" id="c"></path>
                            </g>
                            <path d="M10.0689353,11.0804418 C16.9558295,3.87964279 25.6004474,0.188509616 36.0030485,0.00693153772 C46.4056497,-0.174646541 55.2492003,3.21122952 62.5339657,10.1646613 C69.8187311,17.1180931 73.5504377,25.7152472 73.7291973,35.9563817 C73.907957,46.1975161 70.4798744,54.9949692 63.4448468,62.3490046 C56.4098192,69.7030401 47.6911356,73.4707904 37.2885344,73.6523685 C27.0366956,73.831315 18.3049007,70.368164 11.0928876,63.2628115 C3.88087457,56.157459 0.185543639,47.4843457 0.00678397221,37.2432112 C-0.171975695,27.0020767 3.18204122,18.2812408 10.0689353,11.0804418" id="---ic" fill="#58DB78"></path>
                            <path d="M160.068935,11.0804418 C166.955829,3.87964279 175.600447,0.188509616 186.003048,0.00693153772 C196.40565,-0.174646541 205.2492,3.21122952 212.533966,10.1646613 C219.818731,17.1180931 223.550438,25.7152472 223.729197,35.9563817 C223.907957,46.1975161 220.479874,54.9949692 213.444847,62.3490046 C206.409819,69.7030401 197.691136,73.4707904 187.288534,73.6523685 C177.036696,73.831315 168.304901,70.368164 161.092888,63.2628115 C153.880875,56.157459 150.185544,47.4843457 150.006784,37.2432112 C149.828024,27.0020767 153.182041,18.2812408 160.068935,11.0804418" id="---ic" fill="#58DB78"></path>
                        </g>
                    </g>
                </g>
            </g>
        </g>
    </g>
</svg>