<?xml version="1.0" encoding="UTF-8" standalone="no"?>
<svg width="360px" height="360px" viewBox="0 0 360 360" version="1.1" xmlns="http://www.w3.org/2000/svg" xmlns:xlink="http://www.w3.org/1999/xlink">
    <!-- Generator: Sketch 39.1 (31720) - http://www.bohemiancoding.com/sketch -->
    <title>in-code-icon</title>
    <desc>Created with Sketch.</desc>
    <defs></defs>
    <g id="Page-1" stroke="none" stroke-width="1" fill="none" fill-rule="evenodd">
        <g id="in-code-icon">
            <g id="Group" transform="translate(73.000000, 63.000000)">
                <path d="M7,153.623656 L7,129.123656 L7,123.623656 C7,113.998611 13.1236558,98.1236563 13.1236558,98.1236563 C13.1236558,96.0681321 11.0142702,96.2220619 13.1236558,94.9373593 C15.2330413,93.6526567 14.7343609,88 17.546875,88 L56.453125,88 C59.2656391,88 61.726552,88.6423417 63.8359375,89.9270443 C65.945323,91.2117469 67,92.8818352 67,94.9373593 L67,226.90135 C67,228.751322 65.945323,230.370023 63.8359375,231.757502 C61.726552,233.144981 59.2656391,233.83871 56.453125,233.83871 L17.546875,233.83871 C14.7343609,233.83871 12.273448,233.144981 10.1640625,231.757502 C8.05467695,230.370023 7,228.751322 7,226.90135 L7,153.623656 Z" id="i" fill="#58DB78"></path>
                <path d="M7,116.387905 C7,83.5656028 18.3974565,55.9654447 41.1927114,33.5866024 C63.9879664,11.2077601 91.9706872,0.0185068349 125.141713,0.0185068349 C157.05507,0.0185068349 184.801982,12.581879 208.38328,37.7090001 C210.584201,40.2217122 211.370232,42.8914288 210.741398,45.7182299 C210.112563,48.545031 208.5405,51.2147476 206.025162,53.7274597 L185.509535,75.8706245 C183.623031,77.9122031 181.657952,78.9329771 179.61424,78.9329771 C177.098901,78.9329771 174.269188,77.4410766 171.125015,74.457231 C157.605071,61.5795814 142.827679,55.1408532 126.792396,55.1408532 C109.656653,55.1408532 95.5473874,61.0299339 84.4641773,72.8082719 C73.3809671,84.58661 67.8394452,99.113009 67.8394452,116.387905 C67.8394452,133.97689 73.302364,148.660331 84.2283655,160.438669 C95.154367,172.217007 109.185029,178.106087 126.320772,178.106087 C133.866788,178.106087 140.90177,176.692708 147.425929,173.865907 C153.950088,171.039106 158.862785,168.133826 162.164166,165.14998 C165.465548,162.166135 169.238499,158.318602 173.483133,153.607267 C175.212428,151.722733 177.531221,150.584177 180.439581,150.191566 C183.347941,149.798955 185.745337,150.387863 187.631841,151.958308 L209.326527,170.332423 C213.099535,173.630358 214.98601,177.006764 214.98601,180.461743 C214.98601,182.503322 214.357185,184.466349 213.099516,186.350883 C193.134017,217.60274 163.657836,233.228434 124.67009,233.228434 C103.132504,233.228434 83.4031138,228.203085 65.4813271,218.152237 C47.5595405,208.101388 33.3323707,194.124637 22.7993908,176.221563 C12.2664109,158.318489 7,138.374136 7,116.387905 L7,116.387905 Z" id="c" fill="#000000"></path>
                <path d="M10.0689353,11.0804418 C16.9558295,3.87964279 25.6004474,0.188509616 36.0030485,0.00693153772 C46.4056497,-0.174646541 55.2492003,3.21122952 62.5339657,10.1646613 C69.8187311,17.1180931 73.5504377,25.7152472 73.7291973,35.9563817 C73.907957,46.1975161 70.4798744,54.9949692 63.4448468,62.3490046 C56.4098192,69.7030401 47.6911356,73.4707904 37.2885344,73.6523685 C27.0366956,73.831315 18.3049007,70.368164 11.0928876,63.2628115 C3.88087457,56.157459 0.185543639,47.4843457 0.00678397221,37.2432112 C-0.171975695,27.0020767 3.18204122,18.2812408 10.0689353,11.0804418" id="---ic" fill="#58DB78"></path>
            </g>
        </g>
    </g>
</svg>